# xmcd
#
# Track frame offsets: 
#        150
#        14108
#        29125
#        39285
#        54203
#        84526
#        94980
#        121407
#        137647
#        186825
#        202352
#        226236
#        244359
#        267038
#        284806
#        308171
#
# Disc length: 4750 seconds
#
# Revision: 3
# Processed by: cddbd v1.5.2PL0 Copyright (c) Steve Scherf et al.
# Submitted via: ExactAudioCopy v0.99pb3
#
DISCID=f0128c10
DTITLE=Various Artist - Harmony Jazz - Le Chant Des Rêves
DYEAR=2002
DGENRE=Jazz
TTITLE0=Norah Jones - Don't know why
TTITLE1=Sidney Bechet - Petite fleur
TTITLE2=Louis Armstrong - What a wonderful world
TTITLE3=Miles Davis - Summertime
TTITLE4=Dave Brubeck - Blue ronda a la turk
TTITLE5=Chet Baker - My funny valentine
TTITLE6=Stan Getz and Charlie Byrd - Desafinado
TTITLE7=Nina Simone - My baby just cares for me
TTITLE8=Cannonball Adderley (Feat. Miles Davis) - Automn leaves
TTITLE9=Nat King Cole - Unforgettable
TTITLE10=Herbie Hancock - Cantaloupe island
TTITLE11=Art Blakey - Moanin'
TTITLE12=Lee Morgan - The sidewinder
TTITLE13=Kenny Burrel - Midnight blue
TTITLE14=Horace Silver - Song for my father
TTITLE15=John Coltrane - Blue train
EXTD=YEAR: 2002
EXTT0=
EXTT1=
EXTT2=
EXTT3=
EXTT4=
EXTT5=
EXTT6=
EXTT7=
EXTT8=
EXTT9=
EXTT10=
EXTT11=
EXTT12=
EXTT13=
EXTT14=
EXTT15=
PLAYORDER=
